<?xml version="1.0" standalone="no"?><!DOCTYPE svg PUBLIC "-//W3C//DTD SVG 1.1//EN" "http://www.w3.org/Graphics/SVG/1.1/DTD/svg11.dtd"><svg t="1653319714103" class="icon" viewBox="0 0 1024 1024" version="1.1" xmlns="http://www.w3.org/2000/svg" p-id="9078" xmlns:xlink="http://www.w3.org/1999/xlink" width="128" height="128"><defs><style type="text/css"></style></defs><path d="M376.432708 884.271264a53.962862 53.962862 0 0 1-41.05354-18.954094l-248.681338-291.827466c-19.320836-22.677605-16.60263-56.715585 6.07066-76.036421 22.668976-19.316522 56.711271-16.598315 76.032107 6.07066l210.794723 247.369696 406.32866-406.328661c21.059625-21.06394 55.2141-21.06394 76.273725 0 21.06394 21.059625 21.06394 55.209785 0 76.273725L414.569571 868.471152a53.949918 53.949918 0 0 1-38.136863 15.800112z" fill="#ffffff" p-id="9079"></path><path d="M619.807073 403.584567c-13.802446 0-27.600578-5.263828-38.132548-15.795798-21.068254-21.06394-21.068254-55.209785 0-76.273725l173.507839-173.507839c21.059625-21.06394 55.2141-21.06394 76.273725 0 21.06394 21.06394 21.06394 55.209785 0 76.273725l-173.507839 173.507839a53.76439 53.76439 0 0 1-38.141177 15.795798z" fill="#ffffff" p-id="9080"></path></svg>