<?xml version="1.0" standalone="no"?><!DOCTYPE svg PUBLIC "-//W3C//DTD SVG 1.1//EN" "http://www.w3.org/Graphics/SVG/1.1/DTD/svg11.dtd"><svg t="1653318115324" class="icon" viewBox="0 0 1024 1024" version="1.1" xmlns="http://www.w3.org/2000/svg" p-id="5776" xmlns:xlink="http://www.w3.org/1999/xlink" width="128" height="128"><defs><style type="text/css"></style></defs><path d="M213.333333 255.644444v201.045334a414.904889 414.904889 0 0 0 23.367111 138.666666 446.961778 446.961778 0 0 0 64.540445 121.856 428.373333 428.373333 0 0 0 99.128889 96.568889 359.537778 359.537778 0 0 0 111.530666 52.366223 359.523556 359.523556 0 0 0 111.246223-52.167112 425.400889 425.400889 0 0 0 98.972444-96.398222 448.284444 448.284444 0 0 0 65.166222-122.311111A416.796444 416.796444 0 0 0 810.666667 456.590222v-200.96l-156.373334-69.091555a352.384 352.384 0 0 0-284.629333 0.056889L213.333333 255.644444z m298.581334 697.216c-3.356444 0-6.727111-0.398222-10.012445-1.194666a443.918222 443.918222 0 0 1-150.385778-67.925334 513.536 513.536 0 0 1-118.755555-115.598222 532.906667 532.906667 0 0 1-76.657778-144.753778A499.569778 499.569778 0 0 1 128 456.561778v-228.693334c0-16.924444 9.969778-32.227556 25.429333-39.04l181.703111-80.270222A433.92 433.92 0 0 1 512 71.082667c61.141333 0 120.604444 12.586667 176.796444 37.404444l181.788445 80.355556A42.666667 42.666667 0 0 1 896 227.84V456.533333a501.262222 501.262222 0 0 1-28.145778 166.840889 533.176889 533.176889 0 0 1-77.326222 145.251556 510.236444 510.236444 0 0 1-118.613333 115.399111A444.629333 444.629333 0 0 1 521.955556 951.665778a42.794667 42.794667 0 0 1-10.040889 1.194666z" fill="#1296db" p-id="5777"></path><path d="M213.333333 255.644444v201.045334a414.904889 414.904889 0 0 0 23.367111 138.666666 446.961778 446.961778 0 0 0 64.540445 121.856 428.373333 428.373333 0 0 0 99.128889 96.568889 359.537778 359.537778 0 0 0 111.530666 52.366223 359.523556 359.523556 0 0 0 111.246223-52.167112 425.400889 425.400889 0 0 0 98.972444-96.398222 448.284444 448.284444 0 0 0 65.166222-122.311111A416.796444 416.796444 0 0 0 810.666667 456.590222v-200.96l-156.373334-69.091555a352.384 352.384 0 0 0-284.629333 0.056889L213.333333 255.644444z m298.581334 697.216c-3.356444 0-6.727111-0.398222-10.012445-1.194666a443.918222 443.918222 0 0 1-150.385778-67.925334 513.536 513.536 0 0 1-118.755555-115.598222 532.906667 532.906667 0 0 1-76.657778-144.753778A499.569778 499.569778 0 0 1 128 456.561778v-228.693334c0-16.924444 9.969778-32.227556 25.429333-39.04l181.703111-80.270222A433.92 433.92 0 0 1 512 71.082667c61.141333 0 120.604444 12.586667 176.796444 37.404444l181.788445 80.355556A42.666667 42.666667 0 0 1 896 227.84V456.533333a501.262222 501.262222 0 0 1-28.145778 166.840889 533.176889 533.176889 0 0 1-77.326222 145.251556 510.236444 510.236444 0 0 1-118.613333 115.399111A444.629333 444.629333 0 0 1 521.955556 951.665778a42.794667 42.794667 0 0 1-10.040889 1.194666z" fill="#1296db" p-id="5778"></path><path d="M411.434667 655.217778a42.638222 42.638222 0 0 1-30.165334-72.832L582.4 381.240889a42.666667 42.666667 0 1 1 60.344889 60.344889L441.6 642.716444a42.524444 42.524444 0 0 1-30.165333 12.515556M341.048889 484.266667a42.638222 42.638222 0 0 1-30.165333-72.832l100.551111-100.565334a42.638222 42.638222 0 0 1 60.316444 0 42.638222 42.638222 0 0 1 0 60.330667l-100.551111 100.551111a42.496 42.496 0 0 1-30.151111 12.515556M582.4 725.617778a42.638222 42.638222 0 0 1-30.165333-72.832l100.551111-100.551111a42.638222 42.638222 0 0 1 60.330666 0 42.638222 42.638222 0 0 1 0 60.316444l-100.551111 100.551111a42.524444 42.524444 0 0 1-30.151111 12.515556" fill="#1296db" p-id="5779"></path></svg>