<?xml version="1.0" standalone="no"?><!DOCTYPE svg PUBLIC "-//W3C//DTD SVG 1.1//EN" "http://www.w3.org/Graphics/SVG/1.1/DTD/svg11.dtd"><svg t="1648179904453" class="icon" viewBox="0 0 1028 1024" version="1.1" xmlns="http://www.w3.org/2000/svg" p-id="20976" width="32.125" height="32" xmlns:xlink="http://www.w3.org/1999/xlink"><defs><style type="text/css"></style></defs><path d="M730.852918 818.004669c15.738521 0 28.488716 13.34786 28.488716 29.883269s-12.750195 29.883268-28.488716 29.883268H226.921401c-15.738521 0-28.488716-13.34786-28.488716-29.883268s12.750195-29.883268 28.488716-29.883269h503.931517z m-505.226459-40.342412l68.432685-191.850584 111.564202 117.142413-179.996887 74.708171z m202.807782-96.82179L315.973541 562.801556l305.905058-318.456031 112.560312 118.038911-306.00467 318.456031z m326.922957-342.960311l-112.560311-118.038911 56.280156-59.069261c18.627237-19.523735 48.809339-19.523735 67.536187 0l45.024124 47.215565c18.627237 19.523735 18.627237 51.299611 0 70.823346l-56.280156 59.069261z" p-id="20977" fill="#ffffff"></path><path d="M989.143969 1024H34.871595c-19.224903 0-34.863813-15.638911-34.863813-34.863813V34.863813C0.007782 15.638911 15.646693 0 34.871595 0h631.533074c19.224903 0 34.863813 15.638911 34.863813 34.863813s-15.638911 34.863813-34.863813 34.863813H69.735409v884.544748h884.544747V357.603113c0-19.224903 15.638911-34.863813 34.863813-34.863813s34.863813 15.638911 34.863813 34.863813v631.533074c0 19.224903-15.638911 34.863813-34.863813 34.863813z" p-id="20978" fill="#ffffff"></path></svg>