<?xml version="1.0" standalone="no"?><!DOCTYPE svg PUBLIC "-//W3C//DTD SVG 1.1//EN" "http://www.w3.org/Graphics/SVG/1.1/DTD/svg11.dtd"><svg t="1652272239608" class="icon" viewBox="0 0 1024 1024" version="1.1" xmlns="http://www.w3.org/2000/svg" p-id="2469" xmlns:xlink="http://www.w3.org/1999/xlink" width="128" height="128"><defs><style type="text/css"></style></defs><path d="M320 64h384v64H320zM768 128h-64v64c0 5.15 64 0 64 0v-64zM768 256v-64l64 2.29V256zM832 256h64v64h-64zM896 320h64v384h-64zM832 704h64v64h-64zM768 768h64v64h-64zM704 832h64v64h-64v-64zM320 896h384v64H320zM256 832h64v64h-64zM192 768h64v64h-64zM128 704s-6.89 64 0 64h64v-64h-64zM64 320h64v384H64zM128 256h64v64h-64zM192 194.29h64V256h-64zM256 128h64v66.29h-64zM448 704h128v128H448zM448 640h128V512h64V194.29L384 192v320h64z" fill="#e6e6e6" p-id="2470"></path></svg>