<?xml version="1.0" standalone="no"?><!DOCTYPE svg PUBLIC "-//W3C//DTD SVG 1.1//EN" "http://www.w3.org/Graphics/SVG/1.1/DTD/svg11.dtd"><svg t="1652276078388" class="icon" viewBox="0 0 1024 1024" version="1.1" xmlns="http://www.w3.org/2000/svg" p-id="72757" xmlns:xlink="http://www.w3.org/1999/xlink" width="128" height="128"><defs><style type="text/css"></style></defs><path d="M584.533333 883.2c-74.666667 0-136.533333-61.866667-136.533333-136.533333v-202.666667h-140.8c-17.066667 0-29.866667-12.8-29.866667-29.866667V281.6c0-74.666667 61.866667-136.533333 136.533334-136.533333h381.866666c17.066667 0 29.866667 12.8 29.866667 29.866666s-12.8 29.866667-29.866667 29.866667c-40.533333 0-74.666667 34.133333-74.666666 74.666667V746.666667c0 74.666667-61.866667 136.533333-136.533334 136.533333zM339.2 484.266667h140.8c17.066667 0 29.866667 12.8 29.866667 29.866666V746.666667c0 40.533333 34.133333 74.666667 74.666666 74.666666s74.666667-34.133333 74.666667-74.666666V281.6c0-27.733333 8.533333-53.333333 23.466667-74.666667H413.866667c-40.533333 0-74.666667 34.133333-74.666667 74.666667v202.666667z" p-id="72758" fill="#e6e6e6"></path><path d="M900.266667 544h-211.2c-17.066667 0-29.866667-12.8-29.866667-29.866667V281.6c0-74.666667 61.866667-136.533333 136.533333-136.533333 74.666667 0 136.533333 61.866667 136.533334 136.533333v232.533333c0 17.066667-14.933333 29.866667-32 29.866667z m-179.2-59.733333h149.333333v-202.666667c0-40.533333-34.133333-74.666667-74.666667-74.666667s-74.666667 34.133333-74.666666 74.666667v202.666667zM584.533333 881.066667H256c-104.533333 0-187.733333-85.333333-187.733333-189.866667v-177.066667c0-14.933333 12.8-27.733333 27.733333-27.733333h381.866667c14.933333 0 27.733333 12.8 27.733333 27.733333V746.666667c0 42.666667 34.133333 76.8 76.8 76.8 14.933333 0 27.733333 12.8 27.733333 27.733333 2.133333 17.066667-10.666667 29.866667-25.6 29.866667zM123.733333 541.866667v149.333333c0 72.533333 59.733333 132.266667 132.266667 132.266667h217.6c-14.933333-21.333333-25.6-49.066667-25.6-76.8v-204.8H123.733333zM576 354.133333h-113.066667c-17.066667 0-29.866667-12.8-29.866666-29.866666s12.8-29.866667 29.866666-29.866667H576c17.066667 0 29.866667 12.8 29.866667 29.866667s-12.8 29.866667-29.866667 29.866666zM576 475.733333h-168.533333c-17.066667 0-29.866667-12.8-29.866667-29.866666 0-17.066667 12.8-29.866667 29.866667-29.866667H576c17.066667 0 29.866667 12.8 29.866667 29.866667 2.133333 14.933333-12.8 29.866667-29.866667 29.866666z" p-id="72759" fill="#e6e6e6"></path></svg>