<?xml version="1.0" standalone="no"?><!DOCTYPE svg PUBLIC "-//W3C//DTD SVG 1.1//EN" "http://www.w3.org/Graphics/SVG/1.1/DTD/svg11.dtd"><svg t="1652274837404" class="icon" viewBox="0 0 1024 1024" version="1.1" xmlns="http://www.w3.org/2000/svg" p-id="1152" xmlns:xlink="http://www.w3.org/1999/xlink" width="128" height="128"><defs><style type="text/css"></style></defs><path d="M804.571429 410.441143A330.24 330.24 0 0 0 731.428571 402.285714V292.644571c-113.92-16.310857-215.771429-44.361143-292.571428-122.806857C362.057143 248.32 260.205714 276.333714 146.285714 292.644571v219.501715c0 154.550857 165.668571 294.180571 281.782857 347.245714 11.190857 26.477714 25.746286 51.2 43.154286 73.618286A1686.308571 1686.308571 0 0 1 438.857143 950.857143C195.035429 819.821714 73.142857 681.142857 73.142857 519.533714V226.852571c143.250286 0 272.786286-58.88 365.714286-153.709714a510.390857 510.390857 0 0 0 365.714286 153.709714v183.588572zM524.544 475.428571a328.594286 328.594286 0 0 0-121.124571 228.534858A36.644571 36.644571 0 0 1 402.285714 694.857143v-146.285714H256a36.571429 36.571429 0 1 1 0-73.142858h146.285714V329.142857a36.571429 36.571429 0 1 1 73.142857 0v146.285714h49.115429z m322.889143 320.256l80.164571 80.201143a36.571429 36.571429 0 0 1-51.712 51.712l-80.201143-80.164571a182.857143 182.857143 0 1 1 51.712-51.712zM804.571429 694.857143a109.714286 109.714286 0 1 0-219.428572 0 109.714286 109.714286 0 0 0 219.428572 0z" p-id="1153" fill="#e6e6e6"></path></svg>