<?xml version="1.0" standalone="no"?><!DOCTYPE svg PUBLIC "-//W3C//DTD SVG 1.1//EN" "http://www.w3.org/Graphics/SVG/1.1/DTD/svg11.dtd"><svg t="1651512591126" class="icon" viewBox="0 0 1024 1024" version="1.1" xmlns="http://www.w3.org/2000/svg" p-id="13913" xmlns:xlink="http://www.w3.org/1999/xlink" width="128" height="128"><defs><style type="text/css"></style></defs><path d="M472.615385 866.461538h78.76923v78.769231h-78.76923z" fill="#FFFFFF" p-id="13914"></path><path d="M157.538462 866.461538h78.76923v78.769231H157.538462zM787.692308 866.461538h78.76923v78.769231h-78.76923zM945.230769 630.153846h78.769231v78.769231h-78.769231zM945.230769 551.384615h78.769231v78.769231h-78.769231zM945.230769 472.615385h78.769231v78.76923h-78.769231zM945.230769 393.846154h78.769231v78.769231h-78.769231zM945.230769 315.076923h78.769231v78.769231h-78.769231zM866.461538 708.923077h78.769231v78.769231h-78.769231z" fill="#1E2028" p-id="13915"></path><path d="M866.461538 630.153846h78.769231v78.769231h-78.769231zM866.461538 551.384615h78.769231v78.769231h-78.769231zM866.461538 472.615385h78.769231v78.76923h-78.769231zM866.461538 393.846154h78.769231v78.769231h-78.769231zM866.461538 315.076923h78.769231v78.769231h-78.769231z" fill="#FF9343" p-id="13916"></path><path d="M866.461538 236.307692h78.769231v78.769231h-78.769231zM866.461538 157.538462h78.769231v78.76923h-78.769231zM866.461538 78.769231h78.769231v78.769231h-78.769231zM866.461538 0h78.769231v78.769231h-78.769231zM787.692308 787.692308h78.76923v78.76923h-78.76923z" fill="#1E2028" p-id="13917"></path><path d="M787.692308 708.923077h78.76923v78.769231h-78.76923z" fill="#FF9343" p-id="13918"></path><path d="M787.692308 630.153846h78.76923v78.769231h-78.76923zM787.692308 551.384615h78.76923v78.769231h-78.76923zM787.692308 472.615385h78.76923v78.76923h-78.76923zM787.692308 393.846154h78.76923v78.769231h-78.76923zM787.692308 315.076923h78.76923v78.769231h-78.76923z" fill="#FFDD4D" p-id="13919"></path><path d="M787.692308 236.307692h78.76923v78.769231h-78.76923zM787.692308 157.538462h78.76923v78.76923h-78.76923zM787.692308 78.769231h78.76923v78.769231h-78.76923z" fill="#FF9343" p-id="13920"></path><path d="M787.692308 0h78.76923v78.769231h-78.76923zM708.923077 787.692308h78.769231v78.76923h-78.769231z" fill="#1E2028" p-id="13921"></path><path d="M708.923077 708.923077h78.769231v78.769231h-78.769231z" fill="#FF9343" p-id="13922"></path><path d="M708.923077 630.153846h78.769231v78.769231h-78.769231zM708.923077 551.384615h78.769231v78.769231h-78.769231zM708.923077 472.615385h78.769231v78.76923h-78.769231zM708.923077 393.846154h78.769231v78.769231h-78.769231zM708.923077 315.076923h78.769231v78.769231h-78.769231zM708.923077 236.307692h78.769231v78.769231h-78.769231zM708.923077 157.538462h78.769231v78.76923h-78.769231z" fill="#FFDD4D" p-id="13923"></path><path d="M708.923077 78.769231h78.769231v78.769231h-78.769231zM630.153846 787.692308h78.769231v78.76923h-78.769231z" fill="#1E2028" p-id="13924"></path><path d="M630.153846 708.923077h78.769231v78.769231h-78.769231z" fill="#FF9343" p-id="13925"></path><path d="M630.153846 630.153846h78.769231v78.769231h-78.769231z" fill="#FFDD4D" p-id="13926"></path><path d="M630.153846 551.384615h78.769231v78.769231h-78.769231zM630.153846 472.615385h78.769231v78.76923h-78.769231z" fill="#1E2028" p-id="13927"></path><path d="M630.153846 393.846154h78.769231v78.769231h-78.769231z" fill="#FFDD4D" p-id="13928"></path><path d="M630.153846 315.076923h78.769231v78.769231h-78.769231zM630.153846 236.307692h78.769231v78.769231h-78.769231z" fill="#FF9343" p-id="13929"></path><path d="M630.153846 157.538462h78.769231v78.76923h-78.769231zM551.384615 787.692308h78.769231v78.76923h-78.769231z" fill="#1E2028" p-id="13930"></path><path d="M551.384615 708.923077h78.769231v78.769231h-78.769231z" fill="#FF9343" p-id="13931"></path><path d="M551.384615 630.153846h78.769231v78.769231h-78.769231zM551.384615 551.384615h78.769231v78.769231h-78.769231zM551.384615 472.615385h78.769231v78.76923h-78.769231zM551.384615 393.846154h78.769231v78.769231h-78.769231zM551.384615 315.076923h78.769231v78.769231h-78.769231zM551.384615 236.307692h78.769231v78.769231h-78.769231z" fill="#FFDD4D" p-id="13932"></path><path d="M551.384615 157.538462h78.769231v78.76923h-78.769231zM472.615385 787.692308h78.76923v78.76923h-78.76923z" fill="#1E2028" p-id="13933"></path><path d="M472.615385 708.923077h78.76923v78.769231h-78.76923z" fill="#FF9343" p-id="13934"></path><path d="M472.615385 630.153846h78.76923v78.769231h-78.76923z" fill="#1E2028" p-id="13935"></path><path d="M472.615385 551.384615h78.76923v78.769231h-78.76923zM472.615385 472.615385h78.76923v78.76923h-78.76923zM472.615385 393.846154h78.76923v78.769231h-78.76923z" fill="#FFDD4D" p-id="13936"></path><path d="M472.615385 315.076923h78.76923v78.769231h-78.76923zM472.615385 236.307692h78.76923v78.769231h-78.76923z" fill="#FF9343" p-id="13937"></path><path d="M472.615385 157.538462h78.76923v78.76923h-78.76923zM393.846154 787.692308h78.769231v78.76923h-78.769231z" fill="#1E2028" p-id="13938"></path><path d="M393.846154 708.923077h78.769231v78.769231h-78.769231z" fill="#FF9343" p-id="13939"></path><path d="M393.846154 630.153846h78.769231v78.769231h-78.769231zM393.846154 551.384615h78.769231v78.769231h-78.769231zM393.846154 472.615385h78.769231v78.76923h-78.769231zM393.846154 393.846154h78.769231v78.769231h-78.769231zM393.846154 315.076923h78.769231v78.769231h-78.769231zM393.846154 236.307692h78.769231v78.769231h-78.769231z" fill="#FFDD4D" p-id="13940"></path><path d="M393.846154 157.538462h78.769231v78.76923h-78.769231zM315.076923 787.692308h78.769231v78.76923h-78.769231z" fill="#1E2028" p-id="13941"></path><path d="M315.076923 708.923077h78.769231v78.769231h-78.769231z" fill="#FF9343" p-id="13942"></path><path d="M315.076923 630.153846h78.769231v78.769231h-78.769231z" fill="#FFDD4D" p-id="13943"></path><path d="M315.076923 551.384615h78.769231v78.769231h-78.769231zM315.076923 472.615385h78.769231v78.76923h-78.769231z" fill="#1E2028" p-id="13944"></path><path d="M315.076923 393.846154h78.769231v78.769231h-78.769231z" fill="#FFDD4D" p-id="13945"></path><path d="M315.076923 315.076923h78.769231v78.769231h-78.769231zM315.076923 236.307692h78.769231v78.769231h-78.769231z" fill="#FF9343" p-id="13946"></path><path d="M315.076923 157.538462h78.769231v78.76923h-78.769231zM236.307692 787.692308h78.769231v78.76923h-78.769231z" fill="#1E2028" p-id="13947"></path><path d="M236.307692 708.923077h78.769231v78.769231h-78.769231z" fill="#FFF1B6" p-id="13948"></path><path d="M236.307692 630.153846h78.769231v78.769231h-78.769231zM236.307692 551.384615h78.769231v78.769231h-78.769231zM236.307692 472.615385h78.769231v78.76923h-78.769231zM236.307692 393.846154h78.769231v78.769231h-78.769231zM236.307692 315.076923h78.769231v78.769231h-78.769231zM236.307692 236.307692h78.769231v78.769231h-78.769231zM236.307692 157.538462h78.769231v78.76923h-78.769231z" fill="#FFDD4D" p-id="13949"></path><path d="M236.307692 78.769231h78.769231v78.769231h-78.769231zM157.538462 787.692308h78.76923v78.76923H157.538462z" fill="#1E2028" p-id="13950"></path><path d="M157.538462 708.923077h78.76923v78.769231H157.538462z" fill="#FFF1B6" p-id="13951"></path><path d="M157.538462 630.153846h78.76923v78.769231H157.538462zM157.538462 551.384615h78.76923v78.769231H157.538462zM157.538462 472.615385h78.76923v78.76923H157.538462zM157.538462 393.846154h78.76923v78.769231H157.538462zM157.538462 315.076923h78.76923v78.769231H157.538462z" fill="#FFDD4D" p-id="13952"></path><path d="M157.538462 236.307692h78.76923v78.769231H157.538462zM157.538462 157.538462h78.76923v78.76923H157.538462zM157.538462 78.769231h78.76923v78.769231H157.538462z" fill="#FFF1B6" p-id="13953"></path><path d="M157.538462 0h78.76923v78.769231H157.538462zM78.769231 708.923077h78.769231v78.769231H78.769231z" fill="#1E2028" p-id="13954"></path><path d="M78.769231 630.153846h78.769231v78.769231H78.769231zM78.769231 551.384615h78.769231v78.769231H78.769231zM78.769231 472.615385h78.769231v78.76923H78.769231zM78.769231 393.846154h78.769231v78.769231H78.769231zM78.769231 315.076923h78.769231v78.769231H78.769231z" fill="#FFF1B6" p-id="13955"></path><path d="M78.769231 236.307692h78.769231v78.769231H78.769231zM78.769231 157.538462h78.769231v78.76923H78.769231zM78.769231 78.769231h78.769231v78.769231H78.769231zM78.769231 0h78.769231v78.769231H78.769231zM0 630.153846h78.769231v78.769231H0zM0 551.384615h78.769231v78.769231H0zM0 472.615385h78.769231v78.76923H0zM0 393.846154h78.769231v78.769231H0zM0 315.076923h78.769231v78.769231H0zM157.538462 945.230769h78.76923v78.769231H157.538462zM236.307692 945.230769h78.769231v78.769231h-78.769231zM315.076923 945.230769h78.769231v78.769231h-78.769231zM393.846154 945.230769h78.769231v78.769231h-78.769231z" fill="#1E2028" p-id="13956"></path><path d="M236.307692 866.461538h78.769231v78.769231h-78.769231z" fill="#AAF2C7" p-id="13957"></path><path d="M315.076923 866.461538h78.769231v78.769231h-78.769231zM393.846154 866.461538h78.769231v78.769231h-78.769231zM551.384615 866.461538h78.769231v78.769231h-78.769231zM630.153846 866.461538h78.769231v78.769231h-78.769231z" fill="#60EF9A" p-id="13958"></path><path d="M708.923077 866.461538h78.769231v78.769231h-78.769231z" fill="#38B269" p-id="13959"></path><path d="M472.615385 945.230769h78.76923v78.769231h-78.76923zM551.384615 945.230769h78.769231v78.769231h-78.769231zM630.153846 945.230769h78.769231v78.769231h-78.769231zM708.923077 945.230769h78.769231v78.769231h-78.769231zM787.692308 945.230769h78.76923v78.769231h-78.76923z" fill="#1E2028" p-id="13960"></path></svg>