<?xml version="1.0" standalone="no"?><!DOCTYPE svg PUBLIC "-//W3C//DTD SVG 1.1//EN" "http://www.w3.org/Graphics/SVG/1.1/DTD/svg11.dtd"><svg t="1651514663264" class="icon" viewBox="0 0 1024 1024" version="1.1" xmlns="http://www.w3.org/2000/svg" p-id="2560" xmlns:xlink="http://www.w3.org/1999/xlink" width="128" height="128"><defs><style type="text/css"></style></defs><path d="M896 384h64v64h-64zM832 448h64v64h-64z" fill="#333333" p-id="2561"></path><path d="M832 384h64v64h-64z" fill="#E52A1C" p-id="2562"></path><path d="M832 320h64v64h-64z" fill="#333333" p-id="2563"></path><path d="M768 448h64v64h-64z" fill="#E52A1C" p-id="2564"></path><path d="M768 384h64v64h-64z" fill="#333333" p-id="2565"></path><path d="M768 320h64v64h-64z" fill="#E52A1C" p-id="2566"></path><path d="M704 576h64v64h-64zM704 448h64v64h-64z" fill="#333333" p-id="2567"></path><path d="M704 384h64v64h-64z" fill="#E52A1C" p-id="2568"></path><path d="M704 320h64v64h-64zM704 192h64v64h-64zM640 512h64v64h-64z" fill="#333333" p-id="2569"></path><path d="M640 448h64v64h-64z" fill="#E52A1C" p-id="2570"></path><path d="M640 384h64v64h-64z" fill="#ED4832" p-id="2571"></path><path d="M640 320h64v64h-64z" fill="#E52A1C" p-id="2572"></path><path d="M640 256h64v64h-64zM576 704h64v64h-64zM576 576h64v64h-64z" fill="#333333" p-id="2573"></path><path d="M576 512h64v64h-64z" fill="#E52A1C" p-id="2574"></path><path d="M576 448h64v64h-64z" fill="#ED4832" p-id="2575"></path><path d="M576 384h64v64h-64z" fill="#C62B28" p-id="2576"></path><path d="M576 320h64v64h-64z" fill="#ED4832" p-id="2577"></path><path d="M576 256h64v64h-64z" fill="#E52A1C" p-id="2578"></path><path d="M576 192h64v64h-64zM576 64h64v64h-64z" fill="#333333" p-id="2579"></path><path d="M512 896h64v64h-64zM512 832h64v64h-64zM512 768h64v64h-64zM512 704h64v64h-64z" fill="#E5A423" p-id="2580"></path><path d="M512 640h64v64h-64z" fill="#333333" p-id="2581"></path><path d="M512 576h64v64h-64z" fill="#E52A1C" p-id="2582"></path><path d="M512 512h64v64h-64z" fill="#ED4832" p-id="2583"></path><path d="M512 448h64v64h-64z" fill="#C62B28" p-id="2584"></path><path d="M512 384h64v64h-64z" fill="#ED4832" p-id="2585"></path><path d="M512 320h64v64h-64z" fill="#C62B28" p-id="2586"></path><path d="M512 256h64v64h-64z" fill="#ED4832" p-id="2587"></path><path d="M512 192h64v64h-64z" fill="#E52A1C" p-id="2588"></path><path d="M512 128h64v64h-64z" fill="#333333" p-id="2589"></path><path d="M512 64h64v64h-64z" fill="#E5A423" p-id="2590"></path><path d="M448 896h64v64h-64zM448 832h64v64h-64zM448 768h64v64h-64zM448 704h64v64h-64z" fill="#F7C963" p-id="2591"></path><path d="M448 640h64v64h-64z" fill="#333333" p-id="2592"></path><path d="M448 576h64v64h-64z" fill="#E86258" p-id="2593"></path><path d="M448 512h64v64h-64z" fill="#C62B28" p-id="2594"></path><path d="M448 448h64v64h-64z" fill="#ED4832" p-id="2595"></path><path d="M448 384h64v64h-64z" fill="#C62B28" p-id="2596"></path><path d="M448 320h64v64h-64z" fill="#ED4832" p-id="2597"></path><path d="M448 256h64v64h-64z" fill="#C62B28" p-id="2598"></path><path d="M448 192h64v64h-64z" fill="#E86258" p-id="2599"></path><path d="M448 128h64v64h-64z" fill="#333333" p-id="2600"></path><path d="M448 64h64v64h-64z" fill="#F7C963" p-id="2601"></path><path d="M384 704h64v64h-64zM384 576h64v64h-64z" fill="#333333" p-id="2602"></path><path d="M384 512h64v64h-64z" fill="#E86258" p-id="2603"></path><path d="M384 448h64v64h-64z" fill="#C62B28" p-id="2604"></path><path d="M384 384h64v64h-64z" fill="#ED4832" p-id="2605"></path><path d="M384 320h64v64h-64z" fill="#C62B28" p-id="2606"></path><path d="M384 256h64v64h-64z" fill="#E86258" p-id="2607"></path><path d="M384 192h64v64h-64zM384 64h64v64h-64zM320 512h64v64h-64z" fill="#333333" p-id="2608"></path><path d="M320 448h64v64h-64z" fill="#E86258" p-id="2609"></path><path d="M320 384h64v64h-64z" fill="#ED4832" p-id="2610"></path><path d="M320 320h64v64h-64z" fill="#E86258" p-id="2611"></path><path d="M320 256h64v64h-64zM256 576h64v64h-64zM256 448h64v64h-64z" fill="#333333" p-id="2612"></path><path d="M256 384h64v64h-64z" fill="#E86258" p-id="2613"></path><path d="M256 320h64v64h-64zM256 192h64v64h-64z" fill="#333333" p-id="2614"></path><path d="M192 448h64v64h-64z" fill="#ED4832" p-id="2615"></path><path d="M192 384h64v64h-64z" fill="#333333" p-id="2616"></path><path d="M192 320h64v64h-64z" fill="#E86258" p-id="2617"></path><path d="M128 448h64v64h-64z" fill="#333333" p-id="2618"></path><path d="M128 384h64v64h-64z" fill="#ED4832" p-id="2619"></path><path d="M128 320h64v64h-64zM64 384h64v64H64z" fill="#333333" p-id="2620"></path></svg>