<?xml version="1.0" standalone="no"?><!DOCTYPE svg PUBLIC "-//W3C//DTD SVG 1.1//EN" "http://www.w3.org/Graphics/SVG/1.1/DTD/svg11.dtd"><svg t="1652688339979" class="icon" viewBox="0 0 1024 1024" version="1.1" xmlns="http://www.w3.org/2000/svg" p-id="33668" xmlns:xlink="http://www.w3.org/1999/xlink" width="128" height="128"><defs><style type="text/css"></style></defs><path d="M128 128zM811.456 128zM576 704l96 96-32 32-128-128 128-128 32 32z" p-id="33669" fill="#ffffff"></path><path d="M512 192L128 128v711.68l384 64V256l320-53.12V512h64V128L512 192z m-320 594.56V202.88l256.64 42.24 6.4 584.96L192 786.56z" p-id="33670" fill="#ffffff"></path><path d="M960 704l-128 128-32-32L896 704l-96-96 32-32zM408 379.008l-176-28.032v-64l176 28.032zM408 560l-176-27.968v-64l176 27.968zM408 740.992l-176-27.968v-64l176 27.968z" p-id="33671" fill="#ffffff"></path></svg>